<?xml version="1.0" encoding="utf-8"?>
<!-- Generator: Adobe Illustrator 16.0.0, SVG Export Plug-In . SVG Version: 6.00 Build 0)  -->
<!DOCTYPE svg PUBLIC "-//W3C//DTD SVG 1.1//EN" "http://www.w3.org/Graphics/SVG/1.1/DTD/svg11.dtd">
<svg version="1.1" id="Layer_1" xmlns="http://www.w3.org/2000/svg" xmlns:xlink="http://www.w3.org/1999/xlink" x="0px" y="0px"
	 width="512px" height="192px" viewBox="0 0 512 192" enable-background="new 0 0 512 192" xml:space="preserve">
<g>
	<path fill="#788B95" d="M494.145,97.096h-4.379v-7.665h4.379c1.64,0,2.735,0,3.284,1.096c1.097,0.546,1.097,1.642,1.097,2.738
		c0,1.096,0,2.187-1.097,2.735C496.88,96.548,495.784,97.096,494.145,97.096z M494.145,85.051h-9.307v22.443h4.928v-6.566h4.379
		c2.192,0,3.832,0,5.472-0.549c1.096-0.548,2.191-1.644,3.288-2.735C503.452,96,504,94.903,504,93.265
		c0-1.645-0.548-3.286-1.096-4.382c-1.097-1.094-2.192-2.19-3.288-2.738C497.977,85.6,496.337,85.051,494.145,85.051z
		 M471.699,107.494h5.472V85.051h-5.472V107.494z M459.109,85.051v8.757h-9.854v-8.757h-5.477v22.443h5.477v-9.302h9.854v9.302
		h5.471V85.051H459.109z M428.448,107.494c2.192,0,3.831,0,4.928-0.543c1.644-0.549,2.735-1.645,3.288-2.735
		c1.091-1.096,1.091-2.192,1.091-3.288c0-1.64,0-2.735-1.091-3.832c-0.553-0.548-1.645-1.096-2.741-1.645
		c-1.091-0.548-2.187-1.091-4.379-1.091c-1.64-0.553-2.735-1.096-3.288-1.096c-1.092-0.549-1.092-1.097-1.092-1.645
		c0-1.094,0-1.642,0.549-2.189c1.096-0.548,2.191-0.548,3.283-0.548c2.188,0,4.38,0.548,6.571,1.644l1.097-3.834
		c-0.553-0.548-2.192-1.093-3.288-1.642c-1.64,0-2.735-0.548-4.38-0.548c-1.644,0-3.283,0.548-4.928,1.097
		c-1.644,0.545-2.735,1.641-3.283,2.737c-0.549,1.094-1.096,2.189-1.096,3.283c0,1.645,0.547,2.74,1.096,3.831
		c1.096,0.549,1.64,1.097,2.735,1.645s2.735,1.097,4.384,1.097c1.092,0.543,2.188,0.543,2.736,1.096c0.543,0,1.096,0,1.639,0.543
		c0,0.548,0.553,0.548,0.553,1.097c0,1.096-0.553,1.64-1.096,2.192c-0.553,0-1.645,0.543-3.288,0.543
		c-1.096,0-2.735-0.543-3.832-0.543c-1.639-0.553-2.735-1.097-3.283-1.646l-2.188,3.832c1.091,0.549,2.735,1.096,4.375,1.645
		C425.164,107.494,426.809,107.494,428.448,107.494z M409.291,93.265c0,1.096-0.553,2.187-1.097,2.735
		c-1.096,0.548-2.192,1.096-3.288,1.096h-4.375v-7.665h4.375c1.096,0,2.192,0,3.288,1.096
		C408.738,91.072,409.291,92.168,409.291,93.265z M414.762,107.494l-4.928-7.115c1.645-1.091,2.735-1.644,3.831-2.735
		c0.553-1.644,1.097-2.74,1.097-4.379c0-1.645-0.544-3.286-1.097-4.382c-1.096-1.094-2.187-2.19-3.831-2.738
		c-1.096-0.545-2.735-1.094-4.928-1.094h-9.855v22.443h5.48v-6.566h4.375h0.553l3.832,6.566H414.762z M376.438,103.12v-4.928h10.407
		v-4.385h-10.407v-4.377h12.047v-4.38h-16.974v22.443h16.974v-4.374H376.438z M347.973,103.12V89.431h4.928
		c2.188,0,3.832,0.548,4.924,1.642c1.647,1.096,2.191,2.735,2.191,4.928s-0.544,3.831-2.191,5.475
		c-1.092,1.093-2.735,1.646-4.924,1.646H347.973z M343.045,107.494h9.855c2.735,0,4.924-0.543,6.571-1.639
		c1.64-1.097,3.279-2.192,4.376-3.832c1.095-1.645,1.644-3.831,1.644-6.023s-0.549-3.832-1.644-5.474
		c-1.097-1.644-2.736-3.286-4.376-3.834c-1.647-1.093-3.836-1.642-6.571-1.642h-9.855V107.494z M322.244,98.735l3.283-8.757
		l3.831,8.757H322.244z M332.643,107.494h5.476l-9.855-22.443h-4.923l-9.854,22.443h4.928l2.187-4.927h10.403L332.643,107.494z
		 M297.059,103.12v-4.928h10.403v-4.385h-10.403v-4.377h11.499v-4.38h-16.975v22.443h17.518v-4.374H297.059z M270.233,107.494
		h16.422v-4.374h-10.951V85.051h-5.471V107.494z"/>
	<path fill="#B42426" d="M429.544,51.657v13.138l-10.951-13.138h-4.375v21.896h4.928V60.416l11.495,13.138h3.831V51.657H429.544z
		 M393.412,65.343l3.284-8.759l3.835,8.759H393.412z M403.811,73.554h5.48l-9.855-21.896h-4.928l-9.855,21.896h4.928l2.192-4.379
		h10.398L403.811,73.554z M372.063,74.103c2.188,0,3.831-0.549,5.471-1.097c1.645-0.548,2.74-1.642,3.831-2.735l-3.278-3.285
		c-1.648,1.642-3.288,2.737-5.48,2.737c-1.64,0-2.735-0.548-3.831-1.096s-2.188-1.094-2.736-2.19
		c-0.547-1.094-0.547-2.189-0.547-3.831c0-1.096,0-2.737,0.547-3.834c0.549-1.094,1.641-1.642,2.736-2.188
		c1.096-0.548,2.191-1.096,3.831-1.096c2.192,0,3.832,1.096,5.48,2.737l3.278-3.285c-1.091-1.094-2.187-2.19-3.831-2.738
		c-1.64-0.545-3.283-1.094-5.471-1.094c-2.192,0-4.384,0.549-6.024,1.642c-1.639,1.097-3.287,2.19-4.379,3.834
		c-1.096,1.642-1.644,3.832-1.644,6.021s0.548,4.38,1.644,6.021c1.092,1.644,2.74,3.285,4.379,3.831
		C367.679,73.554,369.87,74.103,372.063,74.103z M348.521,73.554h5.471V51.657h-5.471V73.554z M337.027,59.32
		c0,1.644-0.553,2.189-1.097,3.285c-1.096,0.548-2.192,1.094-3.831,1.094h-3.837v-8.211h3.837c1.639,0,2.735,0.548,3.831,1.096
		C336.475,57.13,337.027,58.226,337.027,59.32z M342.498,73.554l-4.928-7.117c1.644-0.548,2.735-1.642,3.288-2.737
		c1.091-1.094,1.64-2.735,1.64-4.379c0-1.643-0.549-2.736-1.64-3.832c-0.553-1.642-1.645-2.189-3.288-2.738
		c-1.096-1.093-3.284-1.093-4.928-1.093h-9.855v21.896h5.476v-6.021h4.38l4.385,6.021H342.498z M317.316,55.488v-3.831h-16.975
		v21.896h4.928v-7.665h10.402V61.51H305.27v-6.021H317.316z M279.541,65.343l3.282-8.759l3.832,8.759H279.541z M289.943,73.554
		h5.471l-9.854-21.896h-4.928l-9.851,21.896h4.923l2.192-4.379H288.3L289.943,73.554z"/>
	<polygon fill="#B42426" points="36.467,51.108 62.198,51.108 79.716,96 53.987,96 	"/>
	<polygon fill="#788B95" points="97.236,140.347 84.096,106.951 21.139,106.951 8,140.347 33.183,140.347 38.111,129.396 
		67.125,129.396 72.053,140.347 	"/>
	<rect x="224.794" y="51.108" fill="#B42426" width="24.088" height="45.439"/>
	<polygon fill="#788B95" points="105.996,140.347 105.996,106.951 129.537,106.951 129.537,118.445 171.69,118.445 171.69,140.347 	
		"/>
	<rect x="105.996" y="51.108" fill="#B42426" width="23.541" height="45.439"/>
	<path fill="#788B95" d="M213.846,140.347c-18.068,0-32.849-13.142-33.944-31.209l-0.546-2.187h22.994l0.545,1.64
		c1.096,4.928,5.476,8.759,10.951,8.759c6.021,0,10.401-3.831,11.497-8.759v-1.64h22.992v2.187
		C247.24,127.205,232.457,140.347,213.846,140.347z"/>
	<rect x="179.355" y="51.108" fill="#B42426" width="23.539" height="45.439"/>
	<path fill="#788B95" d="M504,118.445h-4.928l-6.023,9.855l-6.023-9.855h-5.471l8.759,14.234v7.667h4.928v-7.667L504,118.445z
		 M464.58,140.347h4.928v-18.069h7.119v-3.832h-19.162v3.832h7.115V140.347z M445.967,140.347h4.927v-21.901h-4.927V140.347z
		 M429.544,140.892c1.64,0,3.288-0.545,4.928-1.097c1.64-0.544,2.192-1.092,3.283-2.188c0.549-1.096,1.096-2.187,1.096-3.831
		c0-1.097-0.547-2.188-1.096-3.283c-1.091-1.097-2.188-1.645-2.735-2.192c-1.097,0-2.74-0.549-4.379-1.096
		c-1.645,0-2.736-0.544-3.832-1.097c-0.553,0-1.096-0.543-1.096-1.639c0-0.549,0.543-1.097,1.096-1.645
		c0.544-0.548,1.64-0.548,3.283-0.548c2.188,0,3.831,0.548,6.02,1.644l1.644-3.832c-1.091-1.096-2.188-1.096-3.832-1.644
		c-1.091-0.543-2.739-0.543-3.831-0.543c-2.188,0-3.836,0.543-4.928,1.091c-1.644,0.549-2.739,1.096-3.283,2.188
		c-1.096,1.096-1.096,2.191-1.096,3.835c0,1.092,0.548,2.735,1.096,3.284c0.544,1.096,1.64,1.64,2.735,2.192
		c1.097,0,2.736,0.543,4.38,1.096c1.096,0,1.645,0.544,2.188,0.544c1.096,0.547,1.096,0.547,1.648,1.096
		c0.544,0,0.544,0.548,0.544,1.096c0,0.544,0,1.097-1.097,1.64c-0.543,0.548-1.639,0.548-2.735,0.548c-1.64,0-2.735,0-4.38-0.548
		c-1.096-0.543-2.187-1.096-3.283-1.64l-1.645,3.832c1.097,1.095,2.188,1.639,3.832,2.19
		C425.713,140.347,427.353,140.892,429.544,140.892z M408.738,126.108c0,1.644,0,2.192-1.091,3.288
		c-0.549,0.544-1.646,0.544-3.284,0.544h-4.385v-7.663h4.385c1.639,0,2.735,0.548,3.284,1.096
		C408.738,123.921,408.738,125.017,408.738,126.108z M414.762,140.347l-4.928-7.118c1.096-0.549,2.192-1.64,3.288-2.735
		c0.543-1.097,1.096-2.741,1.096-4.385c0-1.639-0.553-2.735-1.096-3.831c-1.096-1.64-2.192-2.188-3.288-2.735
		c-1.64-1.097-3.283-1.097-5.471-1.097h-9.313v21.901h4.928v-6.022h4.385h0.543l4.385,6.022H414.762z M374.798,136.512v-5.476
		h10.398v-3.831h-10.398v-4.928h12.047v-3.832H369.87v21.901h16.975v-3.835H374.798z M358.92,118.445l-7.115,15.879l-6.571-15.879
		h-5.471l9.302,21.901h4.928l9.855-21.901H358.92z M328.263,140.347h5.476v-21.901h-5.476V140.347z M314.576,118.445v13.144
		l-10.946-13.144h-4.384v21.901h4.928v-13.142l10.951,13.142h4.379v-21.901H314.576z M280.632,140.892
		c2.74,0,5.48-1.097,7.119-2.735c1.64-1.645,2.735-4.38,2.735-7.663v-12.048h-4.927v12.048c0,2.187-0.544,3.831-1.64,4.375
		c-0.548,1.096-1.64,1.644-3.288,1.644c-3.279,0-4.928-2.188-4.928-6.019v-12.048h-5.471v12.048c0,3.283,1.096,6.019,2.735,7.663
		C274.613,139.795,277.353,140.892,280.632,140.892z"/>
</g>
</svg>
